<?xml version="1.0" standalone="no"?>
<!DOCTYPE svg PUBLIC "-//W3C//DTD SVG 20010904//EN"
 "http://www.w3.org/TR/2001/REC-SVG-20010904/DTD/svg10.dtd">
<svg version="1.0" xmlns="http://www.w3.org/2000/svg"
 width="218.000000pt" height="218.000000pt" viewBox="0 0 218.000000 218.000000"
 preserveAspectRatio="xMidYMid meet">
<metadata>
Created by potrace 1.14, written by Peter Selinger 2001-2017
</metadata>
<g transform="translate(0.000000,218.000000) scale(0.100000,-0.100000)"
fill="#000000" stroke="none">
<path d="M818 2175 c-2 -2 -30 -5 -63 -9 -130 -13 -207 -33 -403 -100 -56 -19
-110 -43 -120 -52 -23 -24 -22 -183 4 -609 3 -44 7 -129 9 -190 3 -60 7 -155
9 -210 4 -88 8 -189 21 -590 2 -55 4 -102 5 -105 2 -3 2 -8 2 -11 -6 -55 2
-167 13 -178 3 -2 39 -5 82 -5 l76 -1 5 -50 c2 -27 9 -53 15 -58 13 -8 293 -2
317 8 16 5 16 17 6 149 -3 38 -8 135 -11 215 -3 80 -8 169 -10 197 l-6 51 44
17 c35 13 162 90 212 128 221 168 348 331 413 533 67 206 58 488 -20 635 -36
69 -59 95 -128 147 -103 78 -134 86 -312 88 -87 1 -159 1 -160 0z m149 -561
c24 -24 25 -30 20 -99 -3 -43 -13 -88 -25 -111 -18 -34 -82 -116 -124 -157
-20 -20 -100 -77 -108 -77 -4 0 -8 28 -8 63 -1 34 -4 126 -6 205 l-3 143 30
15 c56 30 102 43 150 43 39 1 53 -4 74 -25z"/>
<path d="M1812 2123 c-13 -11 -23 -34 -26 -58 -3 -22 -8 -67 -12 -100 -3 -33
-8 -63 -10 -66 -2 -3 -6 -28 -9 -56 -3 -27 -8 -60 -10 -73 -3 -13 -7 -42 -10
-65 -4 -22 -9 -53 -11 -70 -3 -16 -8 -43 -10 -60 -6 -34 -9 -52 -19 -115 -8
-49 -14 -88 -19 -135 -5 -35 -14 -88 -23 -130 -3 -16 -7 -43 -9 -60 -2 -16 -5
-41 -8 -55 -3 -14 -7 -43 -11 -65 -6 -44 -12 -84 -20 -130 -3 -16 -8 -48 -10
-70 -3 -22 -10 -65 -15 -95 -5 -30 -11 -68 -14 -85 -2 -16 -7 -48 -11 -71 -8
-49 0 -57 78 -77 52 -14 59 -14 76 1 18 15 44 98 107 332 8 30 18 62 21 70 3
8 7 20 8 25 1 6 3 12 4 15 2 3 4 12 6 20 1 8 8 35 16 60 7 25 14 50 15 55 1 6
17 59 34 118 17 60 33 116 35 125 2 9 13 49 25 87 12 39 23 77 25 85 2 8 4 15
5 15 1 0 3 7 5 15 1 8 8 35 16 60 7 25 14 50 15 55 2 6 10 35 19 65 9 30 18
62 19 70 1 9 5 21 10 28 4 6 5 12 2 12 -3 0 2 16 10 35 8 19 11 35 8 35 -4 0
-2 6 4 13 9 11 13 26 27 97 14 70 15 87 2 104 -8 11 -20 21 -28 22 -90 20
-126 26 -200 30 -72 4 -89 2 -107 -13z"/>
<path d="M1515 403 c-98 -19 -152 -77 -162 -174 -10 -91 50 -176 137 -196 43
-10 119 -4 150 12 39 20 88 70 101 104 23 57 8 151 -31 193 -33 36 -144 71
-195 61z"/>
</g>
</svg>
